#!OML:ASF F:\VICON\USERDATA\INSTALL\rory3\rory3.ASF
:FULLY-SPECIFIED
:DEGREES
52
root 0.5175217506972337 17.95703305217673 23.085158539279448 -3.007291203253646 -3.35993451257331 -4.496940316588078
lfemur -9.727069799632568 -0.2532170781933627 -14.179355782683901
ltibia 57.868844998164406
lfoot -9.175627753035318 -2.4535557097057827
ltoes -4.818983268610853
rfemur -3.9485056307532176 6.394578602561042 29.464649849194323
rtibia 33.91634850010003
rfoot -21.234646238898844 -11.249944423718988
rtoes -8.417025753439491
lowerback 9.825963305861318 1.2161950419289291 3.9738281300278455
upperback 0.4545578847114439 2.253054067191444 2.346958255487878
thorax -5.006354643020784 1.1624271640883617 0.33114089396841195
lowerneck -16.82241565588877 -2.9970465356845537 -1.2002727453189275
upperneck 21.43418056781186 -3.8964619155455464 0.27040938245004886
head 9.724350325316601 -1.8858507588600537 -0.21680527119483037
lclavicle -2.7971981745039032e-15 -4.160076163978922e-16
lhumerus -33.88832874284478 1.235789900419421 84.87304170731926
lradius 21.929769632725247
lwrist 8.07847080123432
lhand -27.755686290950937 22.65742984543592
lfingers 7.1250199999999975
lthumb -1.1155557954906348 52.919871422281005
rclavicle -2.797198174473364e-15 -4.1600761637702398e-16
rhumerus -25.773782867875536 -14.818382240456216 -77.07839409409168
rradius 25.960621769828577
rwrist 6.008545924462541
rhand -17.749820845070456 22.297224325247292
rfingers 7.1250199999999975
rthumb 8.445353151207783 -6.7645571412909975
53
root 0.533158800993469 17.955651208880575 23.890560689046957 -2.9721853320181024 -2.782455991140331 -4.87958477053709
lfemur -10.374002645766797 -0.45245015132047195 -14.15090555531169
ltibia 57.16138312625865
lfoot -9.884208850190419 -2.519647921493263
ltoes -4.9235860507360165
rfemur -2.0661903340153795 6.245945716211806 29.76349503342222
rtibia 34.00888008400839
rfoot -20.880727145773964 -11.128399443676296
rtoes -8.51723188215102
lowerback 9.84462071255088 1.298791177382454 4.342853677572
upperback 0.474178407059572 2.4548044166165757 2.32111197930856
thorax -4.989272374881176 1.261707977958107 0.06274358147293546
lowerneck -16.807009349182515 -3.0206662735935406 -1.2189594263844512
upperneck 21.40469857625417 -3.929180436746936 0.29433866010992105
head 9.721107646857787 -1.8985295070654618 -0.2123080452246963
lclavicle -2.7971981745084033e-15 -4.160076164011506e-16
lhumerus -34.5595942046388 1.3735351102193447 84.95786943228511
lradius 22.229257010804638
lwrist 8.037631449701633
lhand -27.713012613703846 23.00326201902604
lfingers 7.1250199999999975
lthumb -1.1666677153028577 53.14045275120395
rclavicle -2.7971981744727645e-15 -4.1600761637690067e-16
rhumerus -25.59825816008665 -14.04899801706113 -77.50007154423625
rradius 26.262972305025304
rwrist 5.97382247648362
rhand -17.767042573090496 22.1890302720877
rfingers 7.1250199999999975
rthumb 8.362009027306529 -7.1675413190935995
54
root 0.5378595743598978 17.949033059408762 24.787435829362998 -3.043160243559375 -2.356155168441059 -4.951356759966369
lfemur -10.599384265633592 -0.6848185887231912 -14.359530875159468
ltibia 56.187390613072864
lfoot -10.471064233817204 -2.6423624711235476
ltoes -4.698401671183356
rfemur -0.5445557320541781 6.072849697136977 29.753619952757195
rtibia 34.35730916731147
rfoot -20.55933400862964 -11.006545331186821
rtoes -8.01046591797292
lowerback 9.84083539769934 1.4181864426431199 4.490149853207555
upperback 0.5111244471959342 2.6221872933431642 2.279253192420725
thorax -4.98194177109323 1.3398406071585627 -0.11474331385000103
lowerneck -16.790845069421586 -3.0390498682694127 -1.2341916441289797
upperneck 21.261502387380396 -3.9636039487855816 0.3726947006813808
head 9.652560469346756 -1.9109684106271958 -0.18249633626117853
lclavicle -2.797198174508752e-15 -4.1600761640174047e-16
lhumerus -34.992755842675095 1.7176773000858747 85.01856650241052
lradius 22.451794345145743
lwrist 7.87524114235659
lhand -27.74481943683231 23.0310262075225
lfingers 7.1250199999999975
lthumb -1.2461647791791448 53.128865108329464
rclavicle -2.7971981744688486e-15 -4.1600761637463757e-16
rhumerus -25.565961597001984 -13.511988704512653 -77.79911843079181
rradius 26.55606965672312
rwrist 5.660441609747853
rhand -17.713001964542766 22.1792186149618
rfingers 7.1250199999999975
rthumb 8.453463949604988 -7.1476607351466965
55
root 0.5401120522131488 17.929337765690953 25.9388037694141 -3.261258205856369 -2.0292083764210918 -4.720439837406206
lfemur -10.78597763972375 -0.9214820044898291 -15.003340395062693
ltibia 54.96926212390543
lfoot -10.914622742992883 -2.748424571877968
ltoes -5.555530074394764
rfemur 0.5123715535605751 5.847281725440745 29.402715354241852
rtibia 35.36160619164474
rfoot -20.275022463168522 -10.907636894915147
rtoes -6.7802764520488115
lowerback 9.861086627577489 1.5276004233913114 4.38889889945915
upperback 0.5530681600149912 2.7372512335969956 2.2005300765617557
thorax -4.959308629281201 1.3932118941737424 -0.23376950787462147
lowerneck -16.783168305316067 -3.053283570581568 -1.2461697004983285
upperneck 21.166989075680192 -3.979479311551234 0.45702033455946317
head 9.600316411560232 -1.9166028066789775 -0.14401521030669615
lclavicle -2.797198174507197e-15 -4.16007616400966e-16
lhumerus -35.30824954897684 2.0544917763585433 85.06490895385684
lradius 22.6810472503326
lwrist 7.592458203511558
lhand -27.83358882765769 23.003343830125075
lfingers 7.1250199999999975
lthumb -1.3558535250112744 53.068815023371336
rclavicle -2.7971981744664895e-15 -4.1600761637332205e-16
rhumerus -25.65139123580049 -13.271953283318812 -77.9933979296016
rradius 26.825510049042077
rwrist 5.536550290934251
rhand -17.66532897318219 22.212762261115834
rfingers 7.1250199999999975
rthumb 8.497122223215731 -7.151964017238066
